<?xml version="1.0" standalone="no"?>
<!DOCTYPE svg PUBLIC "-//W3C//DTD SVG 20010904//EN"
 "http://www.w3.org/TR/2001/REC-SVG-20010904/DTD/svg10.dtd">
<svg version="1.0" xmlns="http://www.w3.org/2000/svg"
 width="280.000000pt" height="280.000000pt" viewBox="0 0 280.000000 280.000000"
 preserveAspectRatio="xMidYMid meet">
<metadata>
Created by potrace 1.11, written by Peter Selinger 2001-2013
</metadata>
<g transform="translate(0.000000,280.000000) scale(0.100000,-0.100000)"
fill="#000000" stroke="none">
<path d="M285 2781 c-16 -10 -39 -28 -50 -41 -20 -22 -20 -38 -23 -1335 l-2
-1313 27 -32 c53 -63 -9 -60 1168 -60 1177 0 1115 -3 1168 59 l27 33 0 951 c0
1019 1 985 -50 1088 -14 28 -118 140 -294 316 -239 240 -279 275 -336 302 -36
17 -89 35 -119 41 -33 6 -324 10 -770 10 -680 0 -718 -1 -746 -19z m1317 -528
c3 -381 3 -381 66 -428 26 -19 45 -20 380 -23 l352 -3 0 -799 0 -800 -995 0
-995 0 0 1200 0 1200 594 0 595 0 3 -347z m484 81 c245 -237 283 -278 297
-316 6 -17 -12 -18 -283 -18 l-290 0 0 290 c0 201 3 290 11 290 6 0 125 -111
265 -246z"/>
<path d="M816 1578 c-10 -14 -16 -44 -16 -78 0 -34 6 -64 16 -78 l15 -22 574
0 574 0 15 22 c10 14 16 44 16 78 0 34 -6 64 -16 78 l-15 22 -574 0 -574 0
-15 -22z"/>
<path d="M816 1178 c-10 -14 -16 -44 -16 -78 0 -34 6 -64 16 -78 l15 -22 574
0 574 0 15 22 c10 14 16 44 16 78 0 34 -6 64 -16 78 l-15 22 -574 0 -574 0
-15 -22z"/>
<path d="M816 778 c-10 -14 -16 -44 -16 -78 0 -34 6 -64 16 -78 l15 -22 574 0
574 0 15 22 c10 14 16 44 16 78 0 34 -6 64 -16 78 l-15 22 -574 0 -574 0 -15
-22z"/>
</g>
</svg>
